<?xml version="1.0" encoding="utf-8"?>
<svg height="522.94925pt" viewBox="0 0 522.94925 522.94925" width="522.94925pt" xmlns="http://www.w3.org/2000/svg">
  <path d="m522.949219 261.476562c0 144.40625-117.066407 261.472657-261.472657 261.472657-144.410156 0-261.476562-117.066407-261.476562-261.472657 0-144.410156 117.066406-261.476562 261.476562-261.476562 144.40625 0 261.472657 117.066406 261.472657 261.476562zm0 0" style="fill: rgb(200, 56, 90);"/>
  <path d="M 318.277 408.522 L 202.21 408.522 L 202.21 272.699 C 178.104 254.537 163.52 225.965 163.52 195.728 C 163.52 142.394 206.908 99.002 260.245 99.002 C 313.579 99.002 356.967 142.394 356.967 195.728 C 356.967 225.965 342.383 254.537 318.277 272.699 Z M 318.277 408.522" style="fill: rgb(252, 232, 131);"/>
  <path d="M 240.899 369.833 L 279.588 369.833 L 279.588 251.25 L 289.2 245.659 C 307.406 235.055 318.277 216.388 318.277 195.728 C 318.277 163.73 292.24 137.691 260.245 137.691 C 228.248 137.691 202.21 163.73 202.21 195.728 C 202.21 216.388 213.08 235.055 231.285 245.659 L 240.899 251.25 Z M 240.899 369.833" style="fill: rgb(35, 35, 35);"/>
</svg>