<?xml version="1.0" encoding="utf-8"?>
<svg viewBox="0 0 500 500" width="500" height="500" xmlns="http://www.w3.org/2000/svg">
  <rect id="special" class="toColor" x="-197.788" y="50.494" width="975.924" height="351.58" style="fill: rgb(134, 152, 70);" transform="matrix(0.499028, -0.866586, 0.863221, 0.504872, -231.974869, 284.067017)"/>
  <rect class="toColor" x="-197.788" y="50.494" width="975.924" height="351.58" style="fill: rgb(216, 216, 216);" transform="matrix(0.499028, -0.866586, 0.863221, 0.504872, 66.493385, 468.300781)"/>
  <path class="toColor" d="M 395.811 102.349 L 404.675 128.37 L 445 128.374 L 429.942 154.45 L 443.993 154.451 L 375.814 272.51 L 331.509 195.753 C 317.499 203.099 300.12 204.209 283.994 196.059 C 268.177 188.066 257.575 172.601 255.735 155.092 L 224.245 155.095 C 221.75 191.325 182.599 214.703 148.913 197.679 C 148.702 197.573 148.492 197.465 148.284 197.356 L 105.07 272.185 L 36.917 154.112 L 120.447 154.12 C 118.253 114.176 160.11 86.814 195.821 104.862 C 197.353 105.636 198.835 106.48 200.266 107.389 L 207.437 94.964 L 238.167 148.202 L 271.624 90.266 L 280.306 105.298 C 294.794 96.42 313.572 94.483 330.903 103.242 C 341.711 108.705 350.085 117.656 354.891 128.365 L 386.585 128.368 Z M 240.879 37.027 L 271.624 90.266 L 306.345 30.142 L 170.013 30.128 L 207.437 94.964 Z M 172.726 155.101 L 189.857 125.422 C 188.781 124.7 187.641 124.033 186.44 123.426 C 176.492 118.398 164.617 119.059 155.289 125.161 C 144.883 131.968 140.312 143.285 141.298 154.122 L 173.249 154.126 L 158.701 179.317 C 168.565 184.124 180.244 183.399 189.446 177.38 C 197.72 171.968 202.305 163.704 203.34 155.097 Z M 321.521 121.806 C 311.695 116.84 299.989 117.424 290.713 123.319 L 308.683 154.436 L 323.72 154.438 L 308.668 128.36 L 330.315 128.362 C 327.9 125.782 324.965 123.547 321.521 121.806 Z M 293.376 177.495 C 302.139 181.924 312.398 181.939 321.093 177.708 L 308.036 155.086 L 276.722 155.09 C 278.317 164.224 283.926 172.72 293.376 177.495 Z M 120.442 200.472 L 142.491 183.768 L 114.835 183.194 L 105.762 157.063 L 96.67 183.187 L 69.014 183.741 L 91.051 200.461 L 83.031 226.936 L 105.742 211.143 L 128.443 226.952 Z" style="fill: rgb(255, 255, 255); stroke: rgb(0, 0, 0); stroke-width: 0px;"/>
  <path class="toColor" d="M 173.603 477.891 L 138.719 453.006 L 103.262 477.069 L 116.149 436.201 L 82.307 409.916 L 125.156 409.544 L 139.697 369.236 L 153.292 409.873 L 158.302 410.034 L 245.063 259.724 L 271.422 305.368 L 322.548 216.793 L 395.636 343.354 L 403.727 320.644 L 417.279 360.627 L 459.48 361.814 L 425.641 387.058 L 437.553 427.56 L 403.088 403.179 L 368.249 427.024 L 379.136 392.02 L 321.467 392.026 L 346.252 434.945 L 164.066 434.965 L 161.675 436.734 Z" style="fill: rgb(255, 255, 255); stroke: rgb(0, 0, 0); stroke-width: 0px;"/>
</svg>