<svg viewBox="0 0 500 500" xmlns="http://www.w3.org/2000/svg" >
  <defs>
    <linearGradient id="a" gradientUnits="userSpaceOnUse" x1="353.54" y1="336.616" x2="353.54" y2="400.969">
      <stop class ="static-4" offset="0" stop-color="rgb(0,0,0)"/>
      <stop offset="1" stop-color="rgb(0,0,0)"/>
    </linearGradient>
  </defs>
  <rect id="background" width="100%" height="100%" fill="rgb(0,0,0)"/>
  <path class="conditional-0 to-color" stroke="#000" stroke-width="3" fill="rgb(0,0,0)" d="M104.129 55.473h295.82v172.96h-295.82z"/>
  <path class="static-0 to-color" d="M170.065 196.712s67.824-42.07 89.306-40.034c16.059 1.522 33.854 12.361 37.89 29.526 2.968 12.622.779 13.921-11.001 19.339-38.945 17.91-116.195-8.831-116.195-8.831z" stroke="#000" stroke-width="3" fill="rgb(0,0,0)"/>
  <g class="conditional-1 to-color" stroke="#000" stroke-width="3" fill="rgb(0,0,0)">
    <path d="M208.292 283.64c.47.219-10.086 20.274-11.125 19.925-17.023-5.715-24.787-29.358-45.994-32.528-1.086-.162 2.745-22.53 4.048-22.241 33.821 7.51 26.604 22.466 53.071 34.844z"/>
    <path d="M227.915 293.645l-7.088 24.76-28.702-17.564c7.51-.22 16.96-17.103 8.795-21.18l26.995 13.984zM159.08 250.104c9.362 4.837-4.093 21.459-6.796 21.053-13.146-1.977-32.872-1.671-45.507.333l-7.044-19.616c7.253-3.775 48.921-7.156 59.346-1.77z"/>
    <path d="M103.533 250.812c-22.8 3.233-44.115 19.443-48.27 44.576l26.067 6.508c-4.677-12.664 12.813-29.952 29.93-31.075 2.77-.182.78-16.294-7.727-20.01z"/>
    <path d="M55.25 294.01c3.228-15.252 21.424-7.316 25.17 1.932 1.563 3.859 12.133 14.425 12.133 14.425-9.103-3.993-21.86 15.797-9.896 21.045 0 0-31.944-15.963-27.407-37.401z"/>
  </g>
  <g stroke="#000" fill="rgb(0,0,0)">
    <path class="static-1 to-color" d="M285.3 338.629c-.618 25.755-7.836 47.466-15.938 63.876-6.617-12.862-13.01 2.69-22.41 2.69-9.51 0-14.665-15.9-21.312-2.768-8.092-15.73-15.617-37.738-15.617-63.798 0-47.368 16.94-85.767 37.835-85.767 20.896 0 38.578 38.413 37.442 85.767z" fill="rgb(0,0,0)" stroke-width="3"/>
    <path class="static-2 to-color" d="M285.31 331.455c0 25.81-5.029 48.958-12.988 64.682-6.617-12.862-15.216-20.633-24.616-20.633-9.51 0-18.2 7.953-24.847 21.085-8.092-15.73-13.219-39.074-13.219-65.134 0-47.368 16.94-85.767 37.835-85.767 20.896 0 37.835 38.399 37.835 85.767z" fill="rgb(0,0,0)" stroke-width="3"/>
    <g stroke-width="2">
      <path d="M228.417 387.206l3.1 9.744M237.12 378.926l4.478 24.557M247.234 375.743l-.54 28.463M257.853 378.868l-5.41 24.43M266.19 387.375l-3.767 9.705"/>
    </g>
    <path class="static-9 to-color" stroke-width="3" d="M219.53 292.606h16.822v16.044H219.53zM227.656 280.529h8.723v9.804h-8.723zM236.461 280.524h23.354v18.653h-23.354z"/>
    <path class="static-8 to-color" stroke-width="3" d="M236.978 297.718h33.128v10.966h-33.128z"/>
  </g>
  <g class="conditional-1 to-color" stroke="#000" stroke-width="3" fill="rgb(0,0,0)">
    <path d="M269.17 262.03l8.681 20.955c.524-2.505 26.021-5.948 26.021-5.948l1.196-20.27s-35.898 2.524-35.898 5.263z"/>
    <path d="M318.165 288.152l19.218 7.845s-3.391 7.86-5.927 11.489c-2.859 4.09-8.632 11.21-27.378 12.071-17.362.798-29.474-8.407-29.474-8.407-2.534-2.45-.614-14.81 11.521-16.493 0 0 10.08 8.496 24.505 5.655 4.269-.841 7.535-12.16 7.535-12.16z"/>
    <path d="M305.34 276.885c-10.47-1.847-8.94-19.828-5.584-19.687 9.944-1.56 29.145-1.028 37.191 15.904 7.991 16.815-4.726 33.208-4.726 33.208-.893-2.098-11.602-11.121-18.246-9.058 4.451-9.056 4.078-20.803-8.635-20.367zM244.49 274.009c2.755 6.944 21.049-6.892 21.049-6.892s-4.736-10.949-5.213-21.448c-.503-11.087-1.138-21.953-1.138-21.953.047 5.235-20.735 2.699-20.769-1.11 0 0-.985 18.032.362 25.841 1.539 8.923 1.195 14.185 5.709 25.562z"/>
    <path d="M276.173 312.365c7.337 3.157 16.501-10.958 10.644-17.316-1.635-1.916-12.566-8.854-15.664-15.073-1.522-3.055-7.676-18.149-7.676-18.149.413 5.656-20.944 10.874-21.357 5.228 0 0 4.072 16.491 9.353 24.997 8.22 13.24 24.7 20.313 24.7 20.313zM251.677 195.189c-.407-.035-1.416 30.606-.933 30.653 6.945.676 15.293-6.594 15.742-13.557.481-7.454-4.927-16.24-14.809-17.096z"/>
  </g>
  <circle class="static-3 to-color" cx="249.828" cy="203.893" r="14.728" stroke-width="3" stroke="#000" fill="rgb(0,0,0)"/>
  <path class="conditional-1" d="M246.519 195.062c.407-.035 1.883 30.668 1.4 30.715-6.945.676-15.741-6.918-16.19-13.881-.481-7.454 4.908-15.978 14.79-16.834z" stroke="#000" stroke-width="3" fill="rgb(0,0,0)"/>
  <g stroke="#000">
    <path class="static-4 to-color" d="M357 425.815c23.483 4.188 22.953-65.58 3.204-69.102 0 0-10.118-8.958-12.058-8.01-10.25 5.012-29.076 66.07-16.432 86.133.493.782 25.287-9.02 25.287-9.02z" stroke-width="3" fill="rgb(0,0,0)"/>
    <path d="M340.236 396.552c13.806 19.451 62.349-30.663 50.738-47.022 0 0-6.081-11.882-8.095-12.66-7.888-3.048-56.331 21.849-68.545 46.188-.415.827 25.902 13.494 25.902 13.494z" transform="rotate(-44.523 388.28 382.03)" stroke-width="3" fill="url(#a)"/>
  </g>
  <path class="static-3 to-color" d="M295.227 447.049c-5.07 1.816-10.654-.823-12.47-5.893-1.817-5.07.822-10.654 5.892-12.47 4.133-1.481 8.607-.002 11.104 3.342a9.53 9.53 0 0 1 2.728-1.717c-.559-2.6-.432-5.226.278-7.663a10.09 10.09 0 0 1-6.35-6.19c-1.882-5.257.853-11.043 6.108-12.925a10.083 10.083 0 0 1 8.368.708 7.96 7.96 0 1 1 13.177 8.348 15.8 15.8 0 0 1 2.047 1.063 7.84 7.84 0 0 1 8.644 1.052 7.938 7.938 0 0 1 4.142-3.394c.42-.15.843-.263 1.267-.34a7.974 7.974 0 0 1 1.136-9.33 7.974 7.974 0 1 1 9.202-1.781 7.974 7.974 0 0 1-1.95 15.073 7.974 7.974 0 0 1-12.242 9.865 7.806 7.806 0 0 1-2.733 2.65c-.168 6.293-4.134 12.133-10.418 14.384a15.651 15.651 0 0 1-8.047.681 9.552 9.552 0 0 1-5.736 5.654c-4.002 1.433-8.33.039-10.798-3.15a9.733 9.733 0 0 1-3.349 2.033z" stroke-width="3" stroke="#000" fill="rgb(0,0,0)"/>
  <g class="static-4 to-color" transform="rotate(-19.707 434.945 380.888)" stroke="#000" stroke-width="3" fill="rgb(0,0,0)">
    <path d="M327.852 400.016l58.931 26.207 16.486 12.664 12.586 2.664 5.866-12.533-73.394-33.23-20.475 4.228z"/>
    <path d="M327.236 398.63l56.525 13.958 30.86 20.351 2.05 10.748 41.72-65.464-12.587-1.7-22.824-21.057-18.94-4.53-33.125-21.26s-4.257 23.742-11.72 37.99c-5.71 10.901-31.96 30.965-31.96 30.965z"/>
    <path d="M328.001 399.61l-7.511-1.944s26.82-17.429 34.324-29.737c7.307-11.986 12.477-43.312 12.477-43.312l4.498 5.458s-2.404 27.842-9.911 40.343c-7.499 12.487-33.877 29.192-33.877 29.192z"/>
    <path d="M414.363 433.828l34.498-56.163"/>
    <path d="M421.102 423.371l3.204 6.693M427.988 411.912l4.72 5.178M435.455 400.41l5.773 2.359M443.434 387.871l4.098 5.171M447.895 380.751l5.675 4.034M331.174 391.649l2.136 3.374M349.187 375.738l4.258 3.546M361.297 353.578l4.892 2.32M366.1 333.338l4.663 2.363M341.786 381.506l1.162 6.264M358.845 362.578l6.772.105"/>
    <circle cx="375.34" cy="393.43" r="9.643"/>
    <path stroke-width="6" d="M378.851 374.045l18.456 6.861M388.528 355.5l13.569 12.42"/>
  </g>
  <!-- <path class="static-5" d="M234.445 166.406c.509-1.195 13.434-5.355 19.145-6.696l-.236 17.246-18.548-.144-.361-10.406zM261.359 160.204c5.812.318 16.524 4.964 18.746 7.239l.14 9.766-19.542.013.656-17.018z" fill="#a0a"/> -->
  <circle cx="200.24" cy="110.079" r="34.236" fill="#fff"/>
  <circle cx="304.062" cy="110.457" r="34.236" fill="#fff"/>
  <g class="conditional-0 to-color" fill="rgb(30,30,30)" >
    <circle cx="204.516" cy="116.542" r="24.439"/>
    <circle cx="299.164" cy="116.222" r="24.439"/>
  </g>
  <g>
    <circle cx="204.956" cy="117.133" r="18.385"/>
    <circle cx="299.051" cy="116.897" r="18.297"/>
  </g>
  <circle cx="214.221" cy="107.111" r="3.867" fill="#fff"/>
  <path class="static-5 to-color" d="M73.183 350.163l96.849.834.483 15.022-33.289-.182 42.725 68.293-19.012.164-37.287-61.338-31.719 61.198-19.94.302 36.766-68.607-35.564-.488-.012-15.198z" stroke="#000" stroke-width="3" fill="rgb(0,0,0)"/>
  <path class="static-6 to-color" d="M99.779 304.91l.437 43.888c-2.006 3.44 31.686 9.473 37.223-.023l-.879-43.543-36.781-.322z" stroke="#000" stroke-width="3" fill="rgb(0,0,0)"/>
  <ellipse class="static-6 to-color" cx="118.177" cy="303.878" rx="18.516" ry="3.419" stroke-width="3" stroke="#000" fill="rgb(0,0,0)"/>
  <path stroke="#000" stroke-width="6" d="M120.325 320.528l-.06 17.046"/>
  <path class="conditional-1 to-color" d="M81.84 317.736c.258-.316 23.275 20.058 22.971 20.436-4.363 5.446-15.941 6.444-21.24 1.905-5.674-4.859-8.016-14.667-1.732-22.341z" stroke="#000" stroke-width="3" fill="rgb(0,0,0)"/>
  <path class="static-7 to-color" d="M107.956 330.546c-6.313-.383-9.699-25.053-9.699-25.053s-9.981 8.752-13.897 4.612c-5.945-6.285-7.524-19.741-14.908-14.42-5.925 4.27 1.505 12.047 7.082 16.762 2.729 2.307 8.963 5.339 8.963 5.339s-13.434 8.956-10.278 13.72c3.326 5.02 11.731-5.935 17.537-4.338 5.243 1.442 11.847 6.124 11.604 11.466-.113 2.475-5.858 4.573-5.858 4.573s.14 13.376 4.881 13.358c4.72-.018-.87-10.832 4.758-13.336 5.106-2.271 24.51 3.784 24.075-4.36-.347-6.501-17.05 4.625-19.478-1.415-2.458-6.113 17.076-9.325 13.237-14.679-3.812-5.316-8.436 8.353-18.019 7.771zM100.761 280.534c2.762-.453 6.87 2.227 6.73 5.023-.166 3.308-5.405 1.793-9.622 3.563-4.413 1.85-7.807 6.91-7.807 6.91s4.505-14.479 10.699-15.496z" stroke="#000" stroke-width="3" fill="rgb(0,0,0)"/>
  <path class="static-7 to-color" d="M52.992 313.364c-2.929 3.048-.749 11.134 3.332 12.236 2.962.8 3.79-5.14 6.563-6.452 3.14-1.488 10.365-1.121 10.365-1.121s-15.457-9.659-20.26-4.663zM133.308 360.87c.465 3.326-3.326 7.951-6.661 7.56-4.528-.531-3.904-8.274-6.42-12.075-1.92-2.898-6.566-8.099-6.566-8.099s18.57 4.906 19.647 12.614z" stroke="#000" stroke-width="3" fill="rgb(0,0,0)"/>
  <circle cx="306.118" cy="107.962" r="3.867" fill="#fff"/>
  <path class="static-7 to-color" d="M137.74 297.644c4.006 1.348 5.812 9.525 2.704 12.39-2.256 2.079-5.738-2.804-8.803-2.686-3.473.134-9.709 3.8-9.709 3.8s9.24-15.713 15.807-13.504z" stroke="#000" stroke-width="3" fill="rgb(0,0,0)"/>
  <path stroke="#000" stroke-width="6" d="M372.908 54.943l.15-21.387"/>
  <circle cx="372.978" cy="28.314" r="6.618"/>
</svg>